<mxfile host="drawio-plugin" modified="2021-05-26T10:14:01.820Z" agent="5.0 (Windows NT 6.2; Win64; x64) AppleWebKit/537.36 (KHTML, like Gecko) Chrome/87.0.4280.141 Safari/537.36" etag="L_nficwAhVZ8UUVopdhz" version="14.6.6" type="embed" pages="3"><diagram id="6B7yGU4xiu5NGQ7RS52c" name="ER-Model"><mxGraphModel dx="1127" dy="142" grid="1" gridSize="10" guides="1" tooltips="1" connect="1" arrows="1" fold="1" page="1" pageScale="1" pageWidth="827" pageHeight="1169" math="0" shadow="0"><root><mxCell id="0"/><mxCell id="1" parent="0"/><mxCell id="3ubENdzepyteGBZ1N3o9-130" value="" style="rounded=0;whiteSpace=wrap;html=1;" vertex="1" parent="1"><mxGeometry x="-640" y="760" width="140" height="80" as="geometry"/></mxCell><mxCell id="104" style="edgeStyle=none;rounded=0;orthogonalLoop=1;jettySize=auto;html=1;entryX=1;entryY=0.5;entryDx=0;entryDy=0;endArrow=none;endFill=0;" parent="1" source="2" target="103" edge="1"><mxGeometry relative="1" as="geometry"/></mxCell><mxCell id="106" value="n" style="edgeLabel;html=1;align=center;verticalAlign=middle;resizable=0;points=[];" parent="104" vertex="1" connectable="0"><mxGeometry x="-0.5684" y="3" relative="1" as="geometry"><mxPoint as="offset"/></mxGeometry></mxCell><mxCell id="2" value="Books" style="rounded=0;whiteSpace=wrap;html=1;" parent="1" vertex="1"><mxGeometry x="-237" y="190" width="120" height="60" as="geometry"/></mxCell><mxCell id="63" style="rounded=0;orthogonalLoop=1;jettySize=auto;html=1;entryX=0.084;entryY=0.998;entryDx=0;entryDy=0;entryPerimeter=0;endArrow=none;endFill=0;" parent="1" source="3" target="2" edge="1"><mxGeometry relative="1" as="geometry"/></mxCell><mxCell id="3" value="ISBN" style="ellipse;whiteSpace=wrap;html=1;" parent="1" vertex="1"><mxGeometry x="-380" y="240" width="110" height="40" as="geometry"/></mxCell><mxCell id="64" style="rounded=0;orthogonalLoop=1;jettySize=auto;html=1;endArrow=none;endFill=0;" parent="1" source="6" target="2" edge="1"><mxGeometry relative="1" as="geometry"/></mxCell><mxCell id="6" value="title" style="ellipse;whiteSpace=wrap;html=1;" parent="1" vertex="1"><mxGeometry x="-367" y="130" width="110" height="40" as="geometry"/></mxCell><mxCell id="58" style="rounded=0;orthogonalLoop=1;jettySize=auto;html=1;endArrow=none;endFill=0;" parent="1" source="7" target="2" edge="1"><mxGeometry relative="1" as="geometry"/></mxCell><mxCell id="7" value="publishing_date" style="ellipse;whiteSpace=wrap;html=1;" parent="1" vertex="1"><mxGeometry x="-110" y="220" width="110" height="40" as="geometry"/></mxCell><mxCell id="59" style="rounded=0;orthogonalLoop=1;jettySize=auto;html=1;entryX=0.75;entryY=0;entryDx=0;entryDy=0;endArrow=none;endFill=0;" parent="1" source="9" target="2" edge="1"><mxGeometry relative="1" as="geometry"/></mxCell><mxCell id="9" value="edition" style="ellipse;whiteSpace=wrap;html=1;" parent="1" vertex="1"><mxGeometry x="-190" y="90" width="110" height="40" as="geometry"/></mxCell><mxCell id="60" style="rounded=0;orthogonalLoop=1;jettySize=auto;html=1;entryX=1;entryY=0.5;entryDx=0;entryDy=0;endArrow=none;endFill=0;" parent="1" source="10" target="2" edge="1"><mxGeometry relative="1" as="geometry"/></mxCell><mxCell id="10" value="genre" style="ellipse;whiteSpace=wrap;html=1;" parent="1" vertex="1"><mxGeometry x="-117" y="140" width="110" height="40" as="geometry"/></mxCell><mxCell id="yVGbuL-fI6m4gWuOUqoN-139" style="edgeStyle=none;rounded=0;orthogonalLoop=1;jettySize=auto;html=1;entryX=0.5;entryY=1;entryDx=0;entryDy=0;endArrow=none;endFill=0;" parent="1" source="11" target="yVGbuL-fI6m4gWuOUqoN-138" edge="1"><mxGeometry relative="1" as="geometry"/></mxCell><mxCell id="130" value="m" style="edgeLabel;html=1;align=center;verticalAlign=middle;resizable=0;points=[];" parent="yVGbuL-fI6m4gWuOUqoN-139" vertex="1" connectable="0"><mxGeometry x="-0.593" y="3" relative="1" as="geometry"><mxPoint as="offset"/></mxGeometry></mxCell><mxCell id="11" value="User" style="rounded=0;whiteSpace=wrap;html=1;" parent="1" vertex="1"><mxGeometry x="-417" y="1010" width="120" height="60" as="geometry"/></mxCell><mxCell id="61" style="rounded=0;orthogonalLoop=1;jettySize=auto;html=1;entryX=0.917;entryY=1;entryDx=0;entryDy=0;entryPerimeter=0;endArrow=none;endFill=0;" parent="1" source="12" target="2" edge="1"><mxGeometry relative="1" as="geometry"/></mxCell><mxCell id="12" value="language" style="ellipse;whiteSpace=wrap;html=1;" parent="1" vertex="1"><mxGeometry x="-120" y="280" width="110" height="40" as="geometry"/></mxCell><mxCell id="76" style="edgeStyle=none;rounded=0;orthogonalLoop=1;jettySize=auto;html=1;endArrow=none;endFill=0;" parent="1" source="13" target="11" edge="1"><mxGeometry relative="1" as="geometry"/></mxCell><mxCell id="13" value="&lt;u&gt;user_id&lt;/u&gt;" style="ellipse;whiteSpace=wrap;html=1;" parent="1" vertex="1"><mxGeometry x="-200" y="980" width="110" height="40" as="geometry"/></mxCell><mxCell id="74" style="edgeStyle=none;rounded=0;orthogonalLoop=1;jettySize=auto;html=1;endArrow=none;endFill=0;" parent="1" source="14" target="11" edge="1"><mxGeometry relative="1" as="geometry"/></mxCell><mxCell id="14" value="last_name" style="ellipse;whiteSpace=wrap;html=1;" parent="1" vertex="1"><mxGeometry x="-287" y="1120" width="110" height="40" as="geometry"/></mxCell><mxCell id="15" value="loan" style="rounded=0;whiteSpace=wrap;html=1;" parent="1" vertex="1"><mxGeometry x="-770" y="980" width="120" height="60" as="geometry"/></mxCell><mxCell id="75" style="edgeStyle=none;rounded=0;orthogonalLoop=1;jettySize=auto;html=1;endArrow=none;endFill=0;" parent="1" source="17" target="11" edge="1"><mxGeometry relative="1" as="geometry"/></mxCell><mxCell id="17" value="first_name" style="ellipse;whiteSpace=wrap;html=1;" parent="1" vertex="1"><mxGeometry x="-217" y="1050" width="110" height="40" as="geometry"/></mxCell><mxCell id="bgku8bX7oosItX427bxr-154" style="edgeStyle=none;rounded=0;orthogonalLoop=1;jettySize=auto;html=1;entryX=0.5;entryY=1;entryDx=0;entryDy=0;endArrow=none;endFill=0;" parent="1" source="20" target="bgku8bX7oosItX427bxr-153" edge="1"><mxGeometry relative="1" as="geometry"/></mxCell><mxCell id="bgku8bX7oosItX427bxr-156" value="1" style="edgeLabel;html=1;align=center;verticalAlign=middle;resizable=0;points=[];" parent="bgku8bX7oosItX427bxr-154" vertex="1" connectable="0"><mxGeometry x="-0.6371" y="-2" relative="1" as="geometry"><mxPoint as="offset"/></mxGeometry></mxCell><mxCell id="20" value="Lib_Location" style="rounded=0;whiteSpace=wrap;html=1;" parent="1" vertex="1"><mxGeometry x="-640" y="630" width="120" height="60" as="geometry"/></mxCell><mxCell id="22" value="borrow_item" style="rounded=0;whiteSpace=wrap;html=1;" parent="1" vertex="1"><mxGeometry x="-630" y="770" width="120" height="60" as="geometry"/></mxCell><mxCell id="55" style="rounded=0;orthogonalLoop=1;jettySize=auto;html=1;endArrow=none;endFill=0;" parent="1" source="23" target="29" edge="1"><mxGeometry relative="1" as="geometry"/></mxCell><mxCell id="23" value="publisher" style="rounded=0;whiteSpace=wrap;html=1;" parent="1" vertex="1"><mxGeometry x="-297" y="600" width="120" height="60" as="geometry"/></mxCell><mxCell id="25" value="Author" style="rounded=0;whiteSpace=wrap;html=1;" parent="1" vertex="1"><mxGeometry x="-660" y="100" width="120" height="60" as="geometry"/></mxCell><mxCell id="62" style="rounded=0;orthogonalLoop=1;jettySize=auto;html=1;entryX=0.607;entryY=0.994;entryDx=0;entryDy=0;entryPerimeter=0;endArrow=none;endFill=0;" parent="1" source="26" target="2" edge="1"><mxGeometry relative="1" as="geometry"/></mxCell><mxCell id="26" value="recommended_age" style="ellipse;whiteSpace=wrap;html=1;" parent="1" vertex="1"><mxGeometry x="-217" y="380" width="110" height="40" as="geometry"/></mxCell><mxCell id="73" style="edgeStyle=none;rounded=0;orthogonalLoop=1;jettySize=auto;html=1;entryX=0.5;entryY=1;entryDx=0;entryDy=0;endArrow=none;endFill=0;" parent="1" source="27" target="11" edge="1"><mxGeometry relative="1" as="geometry"/></mxCell><mxCell id="27" value="date_of_birth" style="ellipse;whiteSpace=wrap;html=1;" parent="1" vertex="1"><mxGeometry x="-460" y="1120" width="110" height="40" as="geometry"/></mxCell><mxCell id="57" style="rounded=0;orthogonalLoop=1;jettySize=auto;html=1;endArrow=none;endFill=0;entryX=1;entryY=0.5;entryDx=0;entryDy=0;" parent="1" source="28" target="23" edge="1"><mxGeometry relative="1" as="geometry"><mxPoint x="379" y="181" as="targetPoint"/></mxGeometry></mxCell><mxCell id="28" value="&lt;u&gt;publisher_id&lt;/u&gt;" style="ellipse;whiteSpace=wrap;html=1;" parent="1" vertex="1"><mxGeometry x="-200" y="545" width="110" height="40" as="geometry"/></mxCell><mxCell id="29" value="name" style="ellipse;whiteSpace=wrap;html=1;" parent="1" vertex="1"><mxGeometry x="-367" y="695" width="110" height="40" as="geometry"/></mxCell><mxCell id="53" style="rounded=0;orthogonalLoop=1;jettySize=auto;html=1;entryX=0.5;entryY=0;entryDx=0;entryDy=0;endArrow=none;endFill=0;" parent="1" source="33" target="25" edge="1"><mxGeometry relative="1" as="geometry"/></mxCell><mxCell id="33" value="&lt;u&gt;author_id&lt;/u&gt;" style="ellipse;whiteSpace=wrap;html=1;" parent="1" vertex="1"><mxGeometry x="-660" y="20" width="110" height="40" as="geometry"/></mxCell><mxCell id="68" style="edgeStyle=none;rounded=0;orthogonalLoop=1;jettySize=auto;html=1;endArrow=none;endFill=0;" parent="1" source="34" target="20" edge="1"><mxGeometry relative="1" as="geometry"/></mxCell><mxCell id="34" value="room" style="ellipse;whiteSpace=wrap;html=1;" parent="1" vertex="1"><mxGeometry x="-810" y="690" width="110" height="40" as="geometry"/></mxCell><mxCell id="69" style="edgeStyle=none;rounded=0;orthogonalLoop=1;jettySize=auto;html=1;endArrow=none;endFill=0;" parent="1" source="35" target="20" edge="1"><mxGeometry relative="1" as="geometry"/></mxCell><mxCell id="35" value="floor" style="ellipse;whiteSpace=wrap;html=1;" parent="1" vertex="1"><mxGeometry x="-760" y="740" width="110" height="40" as="geometry"/></mxCell><mxCell id="67" style="edgeStyle=none;rounded=0;orthogonalLoop=1;jettySize=auto;html=1;endArrow=none;endFill=0;" parent="1" source="36" target="20" edge="1"><mxGeometry relative="1" as="geometry"/></mxCell><mxCell id="36" value="shelf" style="ellipse;whiteSpace=wrap;html=1;" parent="1" vertex="1"><mxGeometry x="-820" y="630" width="110" height="40" as="geometry"/></mxCell><mxCell id="66" style="rounded=0;jettySize=auto;html=1;entryX=0.215;entryY=0.014;entryDx=0;entryDy=0;entryPerimeter=0;endArrow=none;endFill=0;" parent="1" source="37" target="20" edge="1"><mxGeometry relative="1" as="geometry"/></mxCell><mxCell id="37" value="compartment" style="ellipse;whiteSpace=wrap;html=1;" parent="1" vertex="1"><mxGeometry x="-810" y="580" width="110" height="40" as="geometry"/></mxCell><mxCell id="71" style="edgeStyle=none;rounded=0;orthogonalLoop=1;jettySize=auto;html=1;endArrow=none;endFill=0;" parent="1" source="38" target="15" edge="1"><mxGeometry relative="1" as="geometry"/></mxCell><mxCell id="38" value="&lt;u&gt;loan_id&lt;/u&gt;" style="ellipse;whiteSpace=wrap;html=1;" parent="1" vertex="1"><mxGeometry x="-700" y="1070" width="110" height="40" as="geometry"/></mxCell><mxCell id="65" style="edgeStyle=None;rounded=0;orthogonalLoop=1;jettySize=auto;html=1;endArrow=none;endFill=0;" parent="1" source="39" target="20" edge="1"><mxGeometry relative="1" as="geometry"/></mxCell><mxCell id="39" value="&lt;u&gt;location_id&lt;/u&gt;" style="ellipse;whiteSpace=wrap;html=1;" parent="1" vertex="1"><mxGeometry x="-715" y="550" width="110" height="40" as="geometry"/></mxCell><mxCell id="52" style="rounded=0;orthogonalLoop=1;jettySize=auto;html=1;entryX=0;entryY=0.5;entryDx=0;entryDy=0;endArrow=none;endFill=0;" parent="1" source="40" target="25" edge="1"><mxGeometry relative="1" as="geometry"/></mxCell><mxCell id="40" value="last_name" style="ellipse;whiteSpace=wrap;html=1;" parent="1" vertex="1"><mxGeometry x="-820" y="100" width="110" height="40" as="geometry"/></mxCell><mxCell id="41" value="first_name" style="ellipse;whiteSpace=wrap;html=1;" parent="1" vertex="1"><mxGeometry x="-800" y="40" width="110" height="40" as="geometry"/></mxCell><mxCell id="70" style="edgeStyle=none;rounded=0;orthogonalLoop=1;jettySize=auto;html=1;endArrow=none;endFill=0;" parent="1" source="42" target="15" edge="1"><mxGeometry relative="1" as="geometry"/></mxCell><mxCell id="42" value="timestamp" style="ellipse;whiteSpace=wrap;html=1;" parent="1" vertex="1"><mxGeometry x="-820" y="1070" width="110" height="40" as="geometry"/></mxCell><mxCell id="72" style="edgeStyle=none;rounded=0;orthogonalLoop=1;jettySize=auto;html=1;endArrow=none;endFill=0;exitX=0;exitY=1;exitDx=0;exitDy=0;" parent="1" source="93" target="15" edge="1"><mxGeometry relative="1" as="geometry"><mxPoint x="255.17223710032204" y="732.548261741307" as="sourcePoint"/></mxGeometry></mxCell><mxCell id="96" value="n" style="edgeLabel;html=1;align=center;verticalAlign=middle;resizable=0;points=[];" parent="72" vertex="1" connectable="0"><mxGeometry x="0.3609" relative="1" as="geometry"><mxPoint as="offset"/></mxGeometry></mxCell><mxCell id="80" style="edgeStyle=none;rounded=0;orthogonalLoop=1;jettySize=auto;html=1;entryX=0;entryY=0.5;entryDx=0;entryDy=0;endArrow=none;endFill=0;" parent="1" source="47" target="3ubENdzepyteGBZ1N3o9-130" edge="1"><mxGeometry relative="1" as="geometry"/></mxCell><mxCell id="47" value="&lt;span&gt;borrow_item_id&lt;/span&gt;" style="ellipse;whiteSpace=wrap;html=1;fontStyle=0" parent="1" vertex="1"><mxGeometry x="-790" y="810" width="110" height="40" as="geometry"/></mxCell><mxCell id="78" style="edgeStyle=none;rounded=0;orthogonalLoop=1;jettySize=auto;html=1;entryX=0.5;entryY=1;entryDx=0;entryDy=0;endArrow=none;endFill=0;" parent="1" source="48" target="3ubENdzepyteGBZ1N3o9-130" edge="1"><mxGeometry relative="1" as="geometry"/></mxCell><mxCell id="48" value="duration" style="ellipse;whiteSpace=wrap;html=1;" parent="1" vertex="1"><mxGeometry x="-605" y="870" width="110" height="40" as="geometry"/></mxCell><mxCell id="50" value="" style="endArrow=none;html=1;entryX=0;entryY=0.5;entryDx=0;entryDy=0;exitX=0.924;exitY=0.745;exitDx=0;exitDy=0;exitPerimeter=0;" parent="1" source="41" target="25" edge="1"><mxGeometry width="50" height="50" relative="1" as="geometry"><mxPoint x="-412" y="249.99999999999977" as="sourcePoint"/><mxPoint x="-387" y="289.9999999999998" as="targetPoint"/></mxGeometry></mxCell><mxCell id="83" style="edgeStyle=none;rounded=0;orthogonalLoop=1;jettySize=auto;html=1;endArrow=none;endFill=0;" parent="1" source="82" target="15" edge="1"><mxGeometry relative="1" as="geometry"/></mxCell><mxCell id="86" value="1" style="edgeLabel;html=1;align=center;verticalAlign=middle;resizable=0;points=[];" parent="83" vertex="1" connectable="0"><mxGeometry x="0.1695" y="1" relative="1" as="geometry"><mxPoint as="offset"/></mxGeometry></mxCell><mxCell id="84" style="edgeStyle=none;rounded=0;orthogonalLoop=1;jettySize=auto;html=1;endArrow=none;endFill=0;shape=link;entryX=0.2;entryY=1.05;entryDx=0;entryDy=0;entryPerimeter=0;" parent="1" source="82" target="3ubENdzepyteGBZ1N3o9-130" edge="1"><mxGeometry relative="1" as="geometry"/></mxCell><mxCell id="87" value="n" style="edgeLabel;html=1;align=center;verticalAlign=middle;resizable=0;points=[];" parent="84" vertex="1" connectable="0"><mxGeometry x="0.532" y="3" relative="1" as="geometry"><mxPoint as="offset"/></mxGeometry></mxCell><mxCell id="90" value="" style="group" parent="1" vertex="1" connectable="0"><mxGeometry x="-710" y="870" width="80" height="80" as="geometry"/></mxCell><mxCell id="82" value="" style="rhombus;whiteSpace=wrap;html=1;" parent="90" vertex="1"><mxGeometry width="80" height="80" as="geometry"/></mxCell><mxCell id="85" value="contains" style="rhombus;whiteSpace=wrap;html=1;" parent="90" vertex="1"><mxGeometry x="10" y="10" width="60" height="60" as="geometry"/></mxCell><mxCell id="94" style="edgeStyle=none;rounded=0;orthogonalLoop=1;jettySize=auto;html=1;entryX=0;entryY=0.5;entryDx=0;entryDy=0;endArrow=none;endFill=0;" parent="1" source="93" target="11" edge="1"><mxGeometry relative="1" as="geometry"/></mxCell><mxCell id="95" value="1" style="edgeLabel;html=1;align=center;verticalAlign=middle;resizable=0;points=[];" parent="94" vertex="1" connectable="0"><mxGeometry x="0.3482" y="-1" relative="1" as="geometry"><mxPoint as="offset"/></mxGeometry></mxCell><mxCell id="93" value="lend" style="rhombus;whiteSpace=wrap;html=1;" parent="1" vertex="1"><mxGeometry x="-537" y="1050" width="60" height="60" as="geometry"/></mxCell><mxCell id="98" style="edgeStyle=none;rounded=0;orthogonalLoop=1;jettySize=auto;html=1;entryX=0.436;entryY=0.999;entryDx=0;entryDy=0;endArrow=none;endFill=0;entryPerimeter=0;" parent="1" source="97" target="2" edge="1"><mxGeometry relative="1" as="geometry"/></mxCell><mxCell id="100" value="1" style="edgeLabel;html=1;align=center;verticalAlign=middle;resizable=0;points=[];" parent="98" vertex="1" connectable="0"><mxGeometry x="0.7983" y="-2" relative="1" as="geometry"><mxPoint as="offset"/></mxGeometry></mxCell><mxCell id="99" style="edgeStyle=none;rounded=0;orthogonalLoop=1;jettySize=auto;html=1;entryX=0.414;entryY=-0.037;entryDx=0;entryDy=0;entryPerimeter=0;endArrow=none;endFill=0;" parent="1" source="97" target="3ubENdzepyteGBZ1N3o9-130" edge="1"><mxGeometry relative="1" as="geometry"/></mxCell><mxCell id="101" value="1" style="edgeLabel;html=1;align=center;verticalAlign=middle;resizable=0;points=[];" parent="99" vertex="1" connectable="0"><mxGeometry x="0.6576" y="1" relative="1" as="geometry"><mxPoint x="-1" as="offset"/></mxGeometry></mxCell><mxCell id="97" value="contains" style="rhombus;whiteSpace=wrap;html=1;" parent="1" vertex="1"><mxGeometry x="-410" y="570" width="60" height="60" as="geometry"/></mxCell><mxCell id="105" style="edgeStyle=none;rounded=0;orthogonalLoop=1;jettySize=auto;html=1;entryX=1;entryY=0;entryDx=0;entryDy=0;endArrow=none;endFill=0;exitX=0;exitY=0.5;exitDx=0;exitDy=0;" parent="1" source="103" target="20" edge="1"><mxGeometry relative="1" as="geometry"/></mxCell><mxCell id="107" value="1" style="edgeLabel;html=1;align=center;verticalAlign=middle;resizable=0;points=[];" parent="105" vertex="1" connectable="0"><mxGeometry x="0.456" y="2" relative="1" as="geometry"><mxPoint x="-1" as="offset"/></mxGeometry></mxCell><mxCell id="110" style="edgeStyle=none;rounded=0;orthogonalLoop=1;jettySize=auto;html=1;endArrow=none;endFill=0;exitX=0.557;exitY=0.008;exitDx=0;exitDy=0;exitPerimeter=0;" parent="1" source="2" target="109" edge="1"><mxGeometry relative="1" as="geometry"><mxPoint x="-144" y="490" as="sourcePoint"/></mxGeometry></mxCell><mxCell id="103" value="located at" style="rhombus;whiteSpace=wrap;html=1;" parent="1" vertex="1"><mxGeometry x="-470" y="510" width="70" height="70" as="geometry"/></mxCell><mxCell id="109" value="is_available" style="ellipse;whiteSpace=wrap;html=1;" parent="1" vertex="1"><mxGeometry x="-310" y="80" width="110" height="40" as="geometry"/></mxCell><mxCell id="112" style="edgeStyle=none;rounded=0;orthogonalLoop=1;jettySize=auto;html=1;endArrow=none;endFill=0;" parent="1" source="111" target="2" edge="1"><mxGeometry relative="1" as="geometry"/></mxCell><mxCell id="111" value="&lt;u&gt;book_id&lt;/u&gt;" style="ellipse;whiteSpace=wrap;html=1;" parent="1" vertex="1"><mxGeometry x="-390" y="320" width="110" height="40" as="geometry"/></mxCell><mxCell id="117" style="edgeStyle=none;rounded=0;orthogonalLoop=1;jettySize=auto;html=1;entryX=0;entryY=0.5;entryDx=0;entryDy=0;endArrow=none;endFill=0;" parent="1" source="116" target="2" edge="1"><mxGeometry relative="1" as="geometry"/></mxCell><mxCell id="119" value="n" style="edgeLabel;html=1;align=center;verticalAlign=middle;resizable=0;points=[];" parent="117" vertex="1" connectable="0"><mxGeometry x="0.4317" y="1" relative="1" as="geometry"><mxPoint as="offset"/></mxGeometry></mxCell><mxCell id="118" style="edgeStyle=none;rounded=0;orthogonalLoop=1;jettySize=auto;html=1;endArrow=none;endFill=0;" parent="1" source="116" target="25" edge="1"><mxGeometry relative="1" as="geometry"/></mxCell><mxCell id="120" value="m" style="edgeLabel;html=1;align=center;verticalAlign=middle;resizable=0;points=[];" parent="118" vertex="1" connectable="0"><mxGeometry x="0.6876" y="1" relative="1" as="geometry"><mxPoint as="offset"/></mxGeometry></mxCell><mxCell id="svkECNXqylEXWRHFqUho-135" value="" style="edgeStyle=none;rounded=0;orthogonalLoop=1;jettySize=auto;html=1;endArrow=none;endFill=0;" parent="1" source="116" target="zm_I_xVnmWr1LnRrSc9i-130" edge="1"><mxGeometry relative="1" as="geometry"/></mxCell><mxCell id="svkECNXqylEXWRHFqUho-136" value="" style="edgeStyle=none;rounded=0;orthogonalLoop=1;jettySize=auto;html=1;endArrow=none;endFill=0;" parent="1" source="116" target="zm_I_xVnmWr1LnRrSc9i-130" edge="1"><mxGeometry relative="1" as="geometry"/></mxCell><mxCell id="116" value="wrote" style="rhombus;whiteSpace=wrap;html=1;" parent="1" vertex="1"><mxGeometry x="-450" y="160" width="70" height="70" as="geometry"/></mxCell><mxCell id="bgku8bX7oosItX427bxr-136" style="rounded=0;orthogonalLoop=1;jettySize=auto;html=1;endArrow=none;endFill=0;" parent="1" source="121" target="bgku8bX7oosItX427bxr-129" edge="1"><mxGeometry relative="1" as="geometry"/></mxCell><mxCell id="121" value="street" style="ellipse;whiteSpace=wrap;html=1;" parent="1" vertex="1"><mxGeometry x="-820" y="200" width="110" height="40" as="geometry"/></mxCell><mxCell id="124" style="edgeStyle=none;rounded=0;orthogonalLoop=1;jettySize=auto;html=1;endArrow=none;endFill=0;entryX=0.5;entryY=1;entryDx=0;entryDy=0;" parent="1" source="123" target="2" edge="1"><mxGeometry relative="1" as="geometry"/></mxCell><mxCell id="126" value="n" style="edgeLabel;html=1;align=center;verticalAlign=middle;resizable=0;points=[];" parent="124" vertex="1" connectable="0"><mxGeometry x="0.6067" y="-1" relative="1" as="geometry"><mxPoint as="offset"/></mxGeometry></mxCell><mxCell id="125" style="edgeStyle=none;rounded=0;orthogonalLoop=1;jettySize=auto;html=1;entryX=0.5;entryY=0;entryDx=0;entryDy=0;endArrow=none;endFill=0;" parent="1" source="123" target="23" edge="1"><mxGeometry relative="1" as="geometry"/></mxCell><mxCell id="127" value="1" style="edgeLabel;html=1;align=center;verticalAlign=middle;resizable=0;points=[];" parent="125" vertex="1" connectable="0"><mxGeometry x="0.2401" y="1" relative="1" as="geometry"><mxPoint as="offset"/></mxGeometry></mxCell><mxCell id="123" value="published" style="rhombus;whiteSpace=wrap;html=1;" parent="1" vertex="1"><mxGeometry x="-285" y="470" width="70" height="70" as="geometry"/></mxCell><mxCell id="129" value="&lt;h1&gt;&lt;b&gt;Biblio: ER-Model&lt;/b&gt;&lt;/h1&gt;" style="text;html=1;align=center;verticalAlign=middle;resizable=0;points=[];autosize=1;" parent="1" vertex="1"><mxGeometry x="-518" y="20" width="210" height="50" as="geometry"/></mxCell><mxCell id="bgku8bX7oosItX427bxr-143" style="edgeStyle=none;rounded=0;orthogonalLoop=1;jettySize=auto;html=1;entryX=0.5;entryY=1;entryDx=0;entryDy=0;endArrow=none;endFill=0;" parent="1" source="bgku8bX7oosItX427bxr-129" target="bgku8bX7oosItX427bxr-142" edge="1"><mxGeometry relative="1" as="geometry"/></mxCell><mxCell id="bgku8bX7oosItX427bxr-146" value="1" style="edgeLabel;html=1;align=center;verticalAlign=middle;resizable=0;points=[];" parent="bgku8bX7oosItX427bxr-143" vertex="1" connectable="0"><mxGeometry x="-0.4345" relative="1" as="geometry"><mxPoint as="offset"/></mxGeometry></mxCell><mxCell id="bgku8bX7oosItX427bxr-129" value="Address" style="rounded=0;whiteSpace=wrap;html=1;" parent="1" vertex="1"><mxGeometry x="-680" y="310" width="120" height="60" as="geometry"/></mxCell><mxCell id="bgku8bX7oosItX427bxr-137" style="edgeStyle=none;rounded=0;orthogonalLoop=1;jettySize=auto;html=1;endArrow=none;endFill=0;" parent="1" source="bgku8bX7oosItX427bxr-130" target="bgku8bX7oosItX427bxr-129" edge="1"><mxGeometry relative="1" as="geometry"/></mxCell><mxCell id="bgku8bX7oosItX427bxr-130" value="house_number" style="ellipse;whiteSpace=wrap;html=1;" parent="1" vertex="1"><mxGeometry x="-820" y="290" width="110" height="40" as="geometry"/></mxCell><mxCell id="bgku8bX7oosItX427bxr-138" style="edgeStyle=none;rounded=0;orthogonalLoop=1;jettySize=auto;html=1;endArrow=none;endFill=0;" parent="1" source="bgku8bX7oosItX427bxr-132" target="bgku8bX7oosItX427bxr-129" edge="1"><mxGeometry relative="1" as="geometry"/></mxCell><mxCell id="bgku8bX7oosItX427bxr-132" value="city" style="ellipse;whiteSpace=wrap;html=1;" parent="1" vertex="1"><mxGeometry x="-820" y="350" width="110" height="40" as="geometry"/></mxCell><mxCell id="bgku8bX7oosItX427bxr-139" style="edgeStyle=none;rounded=0;orthogonalLoop=1;jettySize=auto;html=1;endArrow=none;endFill=0;" parent="1" source="bgku8bX7oosItX427bxr-133" target="bgku8bX7oosItX427bxr-129" edge="1"><mxGeometry relative="1" as="geometry"/></mxCell><mxCell id="bgku8bX7oosItX427bxr-133" value="country" style="ellipse;whiteSpace=wrap;html=1;" parent="1" vertex="1"><mxGeometry x="-820" y="410" width="110" height="40" as="geometry"/></mxCell><mxCell id="bgku8bX7oosItX427bxr-140" style="edgeStyle=none;rounded=0;orthogonalLoop=1;jettySize=auto;html=1;entryX=0.5;entryY=1;entryDx=0;entryDy=0;endArrow=none;endFill=0;" parent="1" source="bgku8bX7oosItX427bxr-134" target="bgku8bX7oosItX427bxr-129" edge="1"><mxGeometry relative="1" as="geometry"/></mxCell><mxCell id="bgku8bX7oosItX427bxr-134" value="zipcode" style="ellipse;whiteSpace=wrap;html=1;" parent="1" vertex="1"><mxGeometry x="-760" y="470" width="110" height="40" as="geometry"/></mxCell><mxCell id="bgku8bX7oosItX427bxr-141" style="edgeStyle=none;rounded=0;orthogonalLoop=1;jettySize=auto;html=1;endArrow=none;endFill=0;" parent="1" source="bgku8bX7oosItX427bxr-135" target="bgku8bX7oosItX427bxr-129" edge="1"><mxGeometry relative="1" as="geometry"/></mxCell><mxCell id="bgku8bX7oosItX427bxr-135" value="&lt;u&gt;address_id&lt;/u&gt;" style="ellipse;whiteSpace=wrap;html=1;" parent="1" vertex="1"><mxGeometry x="-595" y="240" width="110" height="40" as="geometry"/></mxCell><mxCell id="bgku8bX7oosItX427bxr-144" style="edgeStyle=none;rounded=0;orthogonalLoop=1;jettySize=auto;html=1;entryX=0.75;entryY=1;entryDx=0;entryDy=0;endArrow=none;endFill=0;" parent="1" source="bgku8bX7oosItX427bxr-142" target="25" edge="1"><mxGeometry relative="1" as="geometry"/></mxCell><mxCell id="bgku8bX7oosItX427bxr-145" value="1" style="edgeLabel;html=1;align=center;verticalAlign=middle;resizable=0;points=[];" parent="bgku8bX7oosItX427bxr-144" vertex="1" connectable="0"><mxGeometry x="0.4945" y="-1" relative="1" as="geometry"><mxPoint as="offset"/></mxGeometry></mxCell><mxCell id="bgku8bX7oosItX427bxr-142" value="lives at" style="rhombus;whiteSpace=wrap;html=1;" parent="1" vertex="1"><mxGeometry x="-675" y="190" width="70" height="70" as="geometry"/></mxCell><mxCell id="bgku8bX7oosItX427bxr-147" style="edgeStyle=none;rounded=0;orthogonalLoop=1;jettySize=auto;html=1;entryX=0.5;entryY=0;entryDx=0;entryDy=0;endArrow=none;endFill=0;" parent="1" source="25" target="25" edge="1"><mxGeometry relative="1" as="geometry"/></mxCell><mxCell id="bgku8bX7oosItX427bxr-149" style="edgeStyle=none;rounded=0;orthogonalLoop=1;jettySize=auto;html=1;endArrow=none;endFill=0;" parent="1" source="bgku8bX7oosItX427bxr-148" target="23" edge="1"><mxGeometry relative="1" as="geometry"/></mxCell><mxCell id="bgku8bX7oosItX427bxr-151" value="1" style="edgeLabel;html=1;align=center;verticalAlign=middle;resizable=0;points=[];" parent="bgku8bX7oosItX427bxr-149" vertex="1" connectable="0"><mxGeometry x="0.7025" relative="1" as="geometry"><mxPoint as="offset"/></mxGeometry></mxCell><mxCell id="bgku8bX7oosItX427bxr-150" style="edgeStyle=none;rounded=0;orthogonalLoop=1;jettySize=auto;html=1;entryX=1;entryY=0.5;entryDx=0;entryDy=0;endArrow=none;endFill=0;" parent="1" source="bgku8bX7oosItX427bxr-148" target="bgku8bX7oosItX427bxr-129" edge="1"><mxGeometry relative="1" as="geometry"/></mxCell><mxCell id="bgku8bX7oosItX427bxr-152" value="1" style="edgeLabel;html=1;align=center;verticalAlign=middle;resizable=0;points=[];" parent="bgku8bX7oosItX427bxr-150" vertex="1" connectable="0"><mxGeometry x="0.5637" y="-2" relative="1" as="geometry"><mxPoint as="offset"/></mxGeometry></mxCell><mxCell id="bgku8bX7oosItX427bxr-148" value="lives at" style="rhombus;whiteSpace=wrap;html=1;" parent="1" vertex="1"><mxGeometry x="-460" y="410" width="70" height="70" as="geometry"/></mxCell><mxCell id="bgku8bX7oosItX427bxr-155" style="edgeStyle=none;rounded=0;orthogonalLoop=1;jettySize=auto;html=1;entryX=1;entryY=0.75;entryDx=0;entryDy=0;endArrow=none;endFill=0;" parent="1" source="bgku8bX7oosItX427bxr-153" target="bgku8bX7oosItX427bxr-129" edge="1"><mxGeometry relative="1" as="geometry"/></mxCell><mxCell id="bgku8bX7oosItX427bxr-157" value="1" style="edgeLabel;html=1;align=center;verticalAlign=middle;resizable=0;points=[];" parent="bgku8bX7oosItX427bxr-155" vertex="1" connectable="0"><mxGeometry x="0.2467" y="-1" relative="1" as="geometry"><mxPoint as="offset"/></mxGeometry></mxCell><mxCell id="bgku8bX7oosItX427bxr-153" value="located at" style="rhombus;whiteSpace=wrap;html=1;" parent="1" vertex="1"><mxGeometry x="-595" y="500" width="70" height="70" as="geometry"/></mxCell><mxCell id="3-QYkUyADUUi9fxWIzm6-130" style="edgeStyle=none;rounded=0;orthogonalLoop=1;jettySize=auto;html=1;entryX=0.25;entryY=0;entryDx=0;entryDy=0;endArrow=none;endFill=0;" parent="1" source="3-QYkUyADUUi9fxWIzm6-129" target="11" edge="1"><mxGeometry relative="1" as="geometry"/></mxCell><mxCell id="3-QYkUyADUUi9fxWIzm6-132" value="1" style="edgeLabel;html=1;align=center;verticalAlign=middle;resizable=0;points=[];" parent="3-QYkUyADUUi9fxWIzm6-130" vertex="1" connectable="0"><mxGeometry x="0.5783" y="1" relative="1" as="geometry"><mxPoint as="offset"/></mxGeometry></mxCell><mxCell id="3-QYkUyADUUi9fxWIzm6-131" style="edgeStyle=none;rounded=0;orthogonalLoop=1;jettySize=auto;html=1;exitX=0.5;exitY=0;exitDx=0;exitDy=0;entryX=1;entryY=0.75;entryDx=0;entryDy=0;endArrow=none;endFill=0;" parent="1" source="3-QYkUyADUUi9fxWIzm6-129" target="bgku8bX7oosItX427bxr-129" edge="1"><mxGeometry relative="1" as="geometry"/></mxCell><mxCell id="3-QYkUyADUUi9fxWIzm6-133" value="1" style="edgeLabel;html=1;align=center;verticalAlign=middle;resizable=0;points=[];" parent="3-QYkUyADUUi9fxWIzm6-131" vertex="1" connectable="0"><mxGeometry x="0.7915" y="1" relative="1" as="geometry"><mxPoint x="1" as="offset"/></mxGeometry></mxCell><mxCell id="3-QYkUyADUUi9fxWIzm6-129" value="lives at" style="rhombus;whiteSpace=wrap;html=1;" parent="1" vertex="1"><mxGeometry x="-448" y="725" width="70" height="70" as="geometry"/></mxCell><mxCell id="yVGbuL-fI6m4gWuOUqoN-134" style="edgeStyle=none;rounded=0;orthogonalLoop=1;jettySize=auto;html=1;endArrow=none;endFill=0;entryX=0;entryY=0.5;entryDx=0;entryDy=0;" parent="1" source="yVGbuL-fI6m4gWuOUqoN-133" target="yVGbuL-fI6m4gWuOUqoN-138" edge="1"><mxGeometry relative="1" as="geometry"><mxPoint x="-195" y="800" as="targetPoint"/></mxGeometry></mxCell><mxCell id="yVGbuL-fI6m4gWuOUqoN-133" value="read_id" style="ellipse;whiteSpace=wrap;html=1;" parent="1" vertex="1"><mxGeometry x="-215" y="730" width="110" height="40" as="geometry"/></mxCell><mxCell id="yVGbuL-fI6m4gWuOUqoN-137" style="edgeStyle=none;rounded=0;orthogonalLoop=1;jettySize=auto;html=1;endArrow=none;endFill=0;exitX=0.75;exitY=1;exitDx=0;exitDy=0;entryX=0.5;entryY=0;entryDx=0;entryDy=0;" parent="1" source="2" target="yVGbuL-fI6m4gWuOUqoN-138" edge="1"><mxGeometry relative="1" as="geometry"><mxPoint x="-40" y="670" as="sourcePoint"/><mxPoint x="-150" y="760" as="targetPoint"/></mxGeometry></mxCell><mxCell id="yVGbuL-fI6m4gWuOUqoN-143" value="n" style="edgeLabel;html=1;align=center;verticalAlign=middle;resizable=0;points=[];" parent="yVGbuL-fI6m4gWuOUqoN-137" vertex="1" connectable="0"><mxGeometry x="0.5983" y="3" relative="1" as="geometry"><mxPoint as="offset"/></mxGeometry></mxCell><mxCell id="yVGbuL-fI6m4gWuOUqoN-138" value="read" style="rhombus;whiteSpace=wrap;html=1;" parent="1" vertex="1"><mxGeometry x="-77" y="680" width="70" height="70" as="geometry"/></mxCell><mxCell id="zm_I_xVnmWr1LnRrSc9i-130" value="wrote_id" style="ellipse;whiteSpace=wrap;html=1;" parent="1" vertex="1"><mxGeometry x="-490" y="90" width="110" height="40" as="geometry"/></mxCell><mxCell id="svkECNXqylEXWRHFqUho-137" value="duration" style="ellipse;whiteSpace=wrap;html=1;" parent="1" vertex="1"><mxGeometry x="-520" y="910" width="110" height="40" as="geometry"/></mxCell><mxCell id="2Pz8qoE3JE7VVhbokXFi-135" style="edgeStyle=none;rounded=0;orthogonalLoop=1;jettySize=auto;html=1;endArrow=none;endFill=0;" parent="1" source="2Pz8qoE3JE7VVhbokXFi-131" target="11" edge="1"><mxGeometry relative="1" as="geometry"/></mxCell><mxCell id="2Pz8qoE3JE7VVhbokXFi-131" value="username" style="ellipse;whiteSpace=wrap;html=1;" parent="1" vertex="1"><mxGeometry x="-390" y="870" width="110" height="40" as="geometry"/></mxCell><mxCell id="2Pz8qoE3JE7VVhbokXFi-134" style="rounded=0;orthogonalLoop=1;jettySize=auto;html=1;entryX=1;entryY=0;entryDx=0;entryDy=0;endArrow=none;endFill=0;" parent="1" source="2Pz8qoE3JE7VVhbokXFi-133" target="11" edge="1"><mxGeometry relative="1" as="geometry"/></mxCell><mxCell id="2Pz8qoE3JE7VVhbokXFi-133" value="password" style="ellipse;whiteSpace=wrap;html=1;" parent="1" vertex="1"><mxGeometry x="-150" y="910" width="110" height="40" as="geometry"/></mxCell><mxCell id="3ubENdzepyteGBZ1N3o9-133" value="" style="endArrow=none;dashed=1;html=1;dashPattern=1 3;strokeWidth=2;exitX=0.058;exitY=0.733;exitDx=0;exitDy=0;entryX=0.918;entryY=0.75;entryDx=0;entryDy=0;entryPerimeter=0;exitPerimeter=0;" edge="1" parent="1" source="47" target="47"><mxGeometry width="50" height="50" relative="1" as="geometry"><mxPoint x="-440" y="850" as="sourcePoint"/><mxPoint x="-390" y="800" as="targetPoint"/><Array as="points"/></mxGeometry></mxCell></root></mxGraphModel></diagram><diagram id="WIMBKkSyKXid-GT6b2vq" name="Relational Model"><mxGraphModel dx="900" dy="426" grid="1" gridSize="10" guides="1" tooltips="1" connect="1" arrows="1" fold="1" page="1" pageScale="1" pageWidth="827" pageHeight="1169" math="0" shadow="0"><root><mxCell id="WcOot98y8HQMscgrqins-0"/><mxCell id="WcOot98y8HQMscgrqins-1" parent="WcOot98y8HQMscgrqins-0"/><mxCell id="294mWkovmScJ2np1QBrd-16" value="Author" style="shape=table;html=1;whiteSpace=wrap;startSize=30;container=1;collapsible=0;childLayout=tableLayout;fontStyle=1;align=center;" parent="WcOot98y8HQMscgrqins-1" vertex="1"><mxGeometry x="50" y="40" width="510" height="130" as="geometry"/></mxCell><mxCell id="294mWkovmScJ2np1QBrd-17" value="" style="shape=partialRectangle;html=1;whiteSpace=wrap;collapsible=0;dropTarget=0;pointerEvents=0;fillColor=none;top=0;left=0;bottom=0;right=0;points=[[0,0.5],[1,0.5]];portConstraint=eastwest;" parent="294mWkovmScJ2np1QBrd-16" vertex="1"><mxGeometry y="30" width="510" height="30" as="geometry"/></mxCell><mxCell id="294mWkovmScJ2np1QBrd-18" value="author_id" style="shape=partialRectangle;html=1;whiteSpace=wrap;connectable=0;fillColor=none;top=0;left=0;bottom=0;right=0;overflow=hidden;" parent="294mWkovmScJ2np1QBrd-17" vertex="1"><mxGeometry width="128" height="30" as="geometry"/></mxCell><mxCell id="294mWkovmScJ2np1QBrd-19" value="first_name" style="shape=partialRectangle;html=1;whiteSpace=wrap;connectable=0;fillColor=none;top=0;left=0;bottom=0;right=0;overflow=hidden;" parent="294mWkovmScJ2np1QBrd-17" vertex="1"><mxGeometry x="128" width="126" height="30" as="geometry"/></mxCell><mxCell id="294mWkovmScJ2np1QBrd-20" value="last_name" style="shape=partialRectangle;html=1;whiteSpace=wrap;connectable=0;fillColor=none;top=0;left=0;bottom=0;right=0;overflow=hidden;" parent="294mWkovmScJ2np1QBrd-17" vertex="1"><mxGeometry x="254" width="128" height="30" as="geometry"/></mxCell><mxCell id="294mWkovmScJ2np1QBrd-29" value="address_id" style="shape=partialRectangle;html=1;whiteSpace=wrap;connectable=0;fillColor=none;top=0;left=0;bottom=0;right=0;overflow=hidden;" parent="294mWkovmScJ2np1QBrd-17" vertex="1"><mxGeometry x="382" width="128" height="30" as="geometry"/></mxCell><mxCell id="294mWkovmScJ2np1QBrd-21" value="" style="shape=partialRectangle;html=1;whiteSpace=wrap;collapsible=0;dropTarget=0;pointerEvents=0;fillColor=none;top=0;left=0;bottom=0;right=0;points=[[0,0.5],[1,0.5]];portConstraint=eastwest;" parent="294mWkovmScJ2np1QBrd-16" vertex="1"><mxGeometry y="60" width="510" height="70" as="geometry"/></mxCell><mxCell id="294mWkovmScJ2np1QBrd-22" value="0&lt;br&gt;1&lt;br&gt;2" style="shape=partialRectangle;html=1;whiteSpace=wrap;connectable=0;fillColor=none;top=0;left=0;bottom=0;right=0;overflow=hidden;" parent="294mWkovmScJ2np1QBrd-21" vertex="1"><mxGeometry width="128" height="70" as="geometry"/></mxCell><mxCell id="294mWkovmScJ2np1QBrd-23" value="Lukas&lt;br&gt;Phillip&lt;br&gt;Alina" style="shape=partialRectangle;html=1;whiteSpace=wrap;connectable=0;fillColor=none;top=0;left=0;bottom=0;right=0;overflow=hidden;" parent="294mWkovmScJ2np1QBrd-21" vertex="1"><mxGeometry x="128" width="126" height="70" as="geometry"/></mxCell><mxCell id="294mWkovmScJ2np1QBrd-24" value="Benner&lt;br&gt;Lange&lt;br&gt;Buss" style="shape=partialRectangle;html=1;whiteSpace=wrap;connectable=0;fillColor=none;top=0;left=0;bottom=0;right=0;overflow=hidden;" parent="294mWkovmScJ2np1QBrd-21" vertex="1"><mxGeometry x="254" width="128" height="70" as="geometry"/></mxCell><mxCell id="294mWkovmScJ2np1QBrd-30" value="12&lt;br&gt;5&lt;br&gt;31" style="shape=partialRectangle;html=1;whiteSpace=wrap;connectable=0;fillColor=none;top=0;left=0;bottom=0;right=0;overflow=hidden;" parent="294mWkovmScJ2np1QBrd-21" vertex="1"><mxGeometry x="382" width="128" height="70" as="geometry"/></mxCell><mxCell id="y4fqdvZqx3jOKGh_U2L5-0" value="Books" style="shape=table;html=1;whiteSpace=wrap;startSize=30;container=1;collapsible=0;childLayout=tableLayout;fontStyle=1;align=center;" parent="WcOot98y8HQMscgrqins-1" vertex="1"><mxGeometry x="50" y="550" width="638" height="130" as="geometry"/></mxCell><mxCell id="y4fqdvZqx3jOKGh_U2L5-1" value="" style="shape=partialRectangle;html=1;whiteSpace=wrap;collapsible=0;dropTarget=0;pointerEvents=0;fillColor=none;top=0;left=0;bottom=0;right=0;points=[[0,0.5],[1,0.5]];portConstraint=eastwest;" parent="y4fqdvZqx3jOKGh_U2L5-0" vertex="1"><mxGeometry y="30" width="638" height="30" as="geometry"/></mxCell><mxCell id="y4fqdvZqx3jOKGh_U2L5-2" value="book_id" style="shape=partialRectangle;html=1;whiteSpace=wrap;connectable=0;fillColor=none;top=0;left=0;bottom=0;right=0;overflow=hidden;" parent="y4fqdvZqx3jOKGh_U2L5-1" vertex="1"><mxGeometry width="128" height="30" as="geometry"/></mxCell><mxCell id="y4fqdvZqx3jOKGh_U2L5-3" value="ISBN" style="shape=partialRectangle;html=1;whiteSpace=wrap;connectable=0;fillColor=none;top=0;left=0;bottom=0;right=0;overflow=hidden;" parent="y4fqdvZqx3jOKGh_U2L5-1" vertex="1"><mxGeometry x="128" width="126" height="30" as="geometry"/></mxCell><mxCell id="y4fqdvZqx3jOKGh_U2L5-4" value="..." style="shape=partialRectangle;html=1;whiteSpace=wrap;connectable=0;fillColor=none;top=0;left=0;bottom=0;right=0;overflow=hidden;" parent="y4fqdvZqx3jOKGh_U2L5-1" vertex="1"><mxGeometry x="254" width="128" height="30" as="geometry"/></mxCell><mxCell id="y4fqdvZqx3jOKGh_U2L5-13" value="publisher_id" style="shape=partialRectangle;html=1;whiteSpace=wrap;connectable=0;fillColor=none;top=0;left=0;bottom=0;right=0;overflow=hidden;" parent="y4fqdvZqx3jOKGh_U2L5-1" vertex="1"><mxGeometry x="382" width="128" height="30" as="geometry"/></mxCell><mxCell id="y4fqdvZqx3jOKGh_U2L5-11" value="location_id" style="shape=partialRectangle;html=1;whiteSpace=wrap;connectable=0;fillColor=none;top=0;left=0;bottom=0;right=0;overflow=hidden;" parent="y4fqdvZqx3jOKGh_U2L5-1" vertex="1"><mxGeometry x="510" width="128" height="30" as="geometry"/></mxCell><mxCell id="y4fqdvZqx3jOKGh_U2L5-6" value="" style="shape=partialRectangle;html=1;whiteSpace=wrap;collapsible=0;dropTarget=0;pointerEvents=0;fillColor=none;top=0;left=0;bottom=0;right=0;points=[[0,0.5],[1,0.5]];portConstraint=eastwest;" parent="y4fqdvZqx3jOKGh_U2L5-0" vertex="1"><mxGeometry y="60" width="638" height="70" as="geometry"/></mxCell><mxCell id="y4fqdvZqx3jOKGh_U2L5-7" value="0&lt;br&gt;1&lt;br&gt;2" style="shape=partialRectangle;html=1;whiteSpace=wrap;connectable=0;fillColor=none;top=0;left=0;bottom=0;right=0;overflow=hidden;" parent="y4fqdvZqx3jOKGh_U2L5-6" vertex="1"><mxGeometry width="128" height="70" as="geometry"/></mxCell><mxCell id="y4fqdvZqx3jOKGh_U2L5-8" value="012345&lt;br&gt;684354&lt;br&gt;123416" style="shape=partialRectangle;html=1;whiteSpace=wrap;connectable=0;fillColor=none;top=0;left=0;bottom=0;right=0;overflow=hidden;" parent="y4fqdvZqx3jOKGh_U2L5-6" vertex="1"><mxGeometry x="128" width="126" height="70" as="geometry"/></mxCell><mxCell id="y4fqdvZqx3jOKGh_U2L5-9" value="...&lt;br&gt;...&lt;br&gt;..." style="shape=partialRectangle;html=1;whiteSpace=wrap;connectable=0;fillColor=none;top=0;left=0;bottom=0;right=0;overflow=hidden;" parent="y4fqdvZqx3jOKGh_U2L5-6" vertex="1"><mxGeometry x="254" width="128" height="70" as="geometry"/></mxCell><mxCell id="y4fqdvZqx3jOKGh_U2L5-14" value="0&lt;br&gt;5&lt;br&gt;7" style="shape=partialRectangle;html=1;whiteSpace=wrap;connectable=0;fillColor=none;top=0;left=0;bottom=0;right=0;overflow=hidden;" parent="y4fqdvZqx3jOKGh_U2L5-6" vertex="1"><mxGeometry x="382" width="128" height="70" as="geometry"/></mxCell><mxCell id="y4fqdvZqx3jOKGh_U2L5-12" value="54&lt;br&gt;8&lt;br&gt;69" style="shape=partialRectangle;html=1;whiteSpace=wrap;connectable=0;fillColor=none;top=0;left=0;bottom=0;right=0;overflow=hidden;" parent="y4fqdvZqx3jOKGh_U2L5-6" vertex="1"><mxGeometry x="510" width="128" height="70" as="geometry"/></mxCell><mxCell id="y4fqdvZqx3jOKGh_U2L5-15" value="Publisher" style="shape=table;html=1;whiteSpace=wrap;startSize=30;container=1;collapsible=0;childLayout=tableLayout;fontStyle=1;align=center;" parent="WcOot98y8HQMscgrqins-1" vertex="1"><mxGeometry x="50" y="200" width="382" height="130" as="geometry"/></mxCell><mxCell id="y4fqdvZqx3jOKGh_U2L5-16" value="" style="shape=partialRectangle;html=1;whiteSpace=wrap;collapsible=0;dropTarget=0;pointerEvents=0;fillColor=none;top=0;left=0;bottom=0;right=0;points=[[0,0.5],[1,0.5]];portConstraint=eastwest;" parent="y4fqdvZqx3jOKGh_U2L5-15" vertex="1"><mxGeometry y="30" width="382" height="30" as="geometry"/></mxCell><mxCell id="y4fqdvZqx3jOKGh_U2L5-17" value="publisher_id" style="shape=partialRectangle;html=1;whiteSpace=wrap;connectable=0;fillColor=none;top=0;left=0;bottom=0;right=0;overflow=hidden;" parent="y4fqdvZqx3jOKGh_U2L5-16" vertex="1"><mxGeometry width="128" height="30" as="geometry"/></mxCell><mxCell id="y4fqdvZqx3jOKGh_U2L5-18" value="name" style="shape=partialRectangle;html=1;whiteSpace=wrap;connectable=0;fillColor=none;top=0;left=0;bottom=0;right=0;overflow=hidden;" parent="y4fqdvZqx3jOKGh_U2L5-16" vertex="1"><mxGeometry x="128" width="126" height="30" as="geometry"/></mxCell><mxCell id="y4fqdvZqx3jOKGh_U2L5-20" value="address_id" style="shape=partialRectangle;html=1;whiteSpace=wrap;connectable=0;fillColor=none;top=0;left=0;bottom=0;right=0;overflow=hidden;" parent="y4fqdvZqx3jOKGh_U2L5-16" vertex="1"><mxGeometry x="254" width="128" height="30" as="geometry"/></mxCell><mxCell id="y4fqdvZqx3jOKGh_U2L5-21" value="" style="shape=partialRectangle;html=1;whiteSpace=wrap;collapsible=0;dropTarget=0;pointerEvents=0;fillColor=none;top=0;left=0;bottom=0;right=0;points=[[0,0.5],[1,0.5]];portConstraint=eastwest;" parent="y4fqdvZqx3jOKGh_U2L5-15" vertex="1"><mxGeometry y="60" width="382" height="70" as="geometry"/></mxCell><mxCell id="y4fqdvZqx3jOKGh_U2L5-22" value="0&lt;br&gt;1&lt;br&gt;2" style="shape=partialRectangle;html=1;whiteSpace=wrap;connectable=0;fillColor=none;top=0;left=0;bottom=0;right=0;overflow=hidden;" parent="y4fqdvZqx3jOKGh_U2L5-21" vertex="1"><mxGeometry width="128" height="70" as="geometry"/></mxCell><mxCell id="y4fqdvZqx3jOKGh_U2L5-23" value="test&lt;br&gt;guteBücher&lt;br&gt;abcde" style="shape=partialRectangle;html=1;whiteSpace=wrap;connectable=0;fillColor=none;top=0;left=0;bottom=0;right=0;overflow=hidden;" parent="y4fqdvZqx3jOKGh_U2L5-21" vertex="1"><mxGeometry x="128" width="126" height="70" as="geometry"/></mxCell><mxCell id="y4fqdvZqx3jOKGh_U2L5-25" value="12&lt;br&gt;5&lt;br&gt;31" style="shape=partialRectangle;html=1;whiteSpace=wrap;connectable=0;fillColor=none;top=0;left=0;bottom=0;right=0;overflow=hidden;" parent="y4fqdvZqx3jOKGh_U2L5-21" vertex="1"><mxGeometry x="254" width="128" height="70" as="geometry"/></mxCell><mxCell id="y4fqdvZqx3jOKGh_U2L5-26" value="Lib_Location" style="shape=table;html=1;whiteSpace=wrap;startSize=30;container=1;collapsible=0;childLayout=tableLayout;fontStyle=1;align=center;" parent="WcOot98y8HQMscgrqins-1" vertex="1"><mxGeometry x="440" y="200" width="384" height="130" as="geometry"/></mxCell><mxCell id="y4fqdvZqx3jOKGh_U2L5-27" value="" style="shape=partialRectangle;html=1;whiteSpace=wrap;collapsible=0;dropTarget=0;pointerEvents=0;fillColor=none;top=0;left=0;bottom=0;right=0;points=[[0,0.5],[1,0.5]];portConstraint=eastwest;" parent="y4fqdvZqx3jOKGh_U2L5-26" vertex="1"><mxGeometry y="30" width="384" height="30" as="geometry"/></mxCell><mxCell id="y4fqdvZqx3jOKGh_U2L5-28" value="location_id" style="shape=partialRectangle;html=1;whiteSpace=wrap;connectable=0;fillColor=none;top=0;left=0;bottom=0;right=0;overflow=hidden;" parent="y4fqdvZqx3jOKGh_U2L5-27" vertex="1"><mxGeometry width="120" height="30" as="geometry"/></mxCell><mxCell id="y4fqdvZqx3jOKGh_U2L5-30" value="..." style="shape=partialRectangle;html=1;whiteSpace=wrap;connectable=0;fillColor=none;top=0;left=0;bottom=0;right=0;overflow=hidden;" parent="y4fqdvZqx3jOKGh_U2L5-27" vertex="1"><mxGeometry x="120" width="136" height="30" as="geometry"/></mxCell><mxCell id="y4fqdvZqx3jOKGh_U2L5-31" value="address_id" style="shape=partialRectangle;html=1;whiteSpace=wrap;connectable=0;fillColor=none;top=0;left=0;bottom=0;right=0;overflow=hidden;" parent="y4fqdvZqx3jOKGh_U2L5-27" vertex="1"><mxGeometry x="256" width="128" height="30" as="geometry"/></mxCell><mxCell id="y4fqdvZqx3jOKGh_U2L5-32" value="" style="shape=partialRectangle;html=1;whiteSpace=wrap;collapsible=0;dropTarget=0;pointerEvents=0;fillColor=none;top=0;left=0;bottom=0;right=0;points=[[0,0.5],[1,0.5]];portConstraint=eastwest;" parent="y4fqdvZqx3jOKGh_U2L5-26" vertex="1"><mxGeometry y="60" width="384" height="70" as="geometry"/></mxCell><mxCell id="y4fqdvZqx3jOKGh_U2L5-33" value="0&lt;br&gt;1&lt;br&gt;2" style="shape=partialRectangle;html=1;whiteSpace=wrap;connectable=0;fillColor=none;top=0;left=0;bottom=0;right=0;overflow=hidden;" parent="y4fqdvZqx3jOKGh_U2L5-32" vertex="1"><mxGeometry width="120" height="70" as="geometry"/></mxCell><mxCell id="y4fqdvZqx3jOKGh_U2L5-35" value="...&lt;br&gt;...&lt;br&gt;..." style="shape=partialRectangle;html=1;whiteSpace=wrap;connectable=0;fillColor=none;top=0;left=0;bottom=0;right=0;overflow=hidden;" parent="y4fqdvZqx3jOKGh_U2L5-32" vertex="1"><mxGeometry x="120" width="136" height="70" as="geometry"/></mxCell><mxCell id="y4fqdvZqx3jOKGh_U2L5-36" value="12&lt;br&gt;5&lt;br&gt;31" style="shape=partialRectangle;html=1;whiteSpace=wrap;connectable=0;fillColor=none;top=0;left=0;bottom=0;right=0;overflow=hidden;" parent="y4fqdvZqx3jOKGh_U2L5-32" vertex="1"><mxGeometry x="256" width="128" height="70" as="geometry"/></mxCell><mxCell id="y4fqdvZqx3jOKGh_U2L5-37" value="Borrow_item" style="shape=table;html=1;whiteSpace=wrap;startSize=30;container=1;collapsible=0;childLayout=tableLayout;fontStyle=1;align=center;" parent="WcOot98y8HQMscgrqins-1" vertex="1"><mxGeometry x="50" y="720" width="510" height="130" as="geometry"/></mxCell><mxCell id="y4fqdvZqx3jOKGh_U2L5-38" value="" style="shape=partialRectangle;html=1;whiteSpace=wrap;collapsible=0;dropTarget=0;pointerEvents=0;fillColor=none;top=0;left=0;bottom=0;right=0;points=[[0,0.5],[1,0.5]];portConstraint=eastwest;" parent="y4fqdvZqx3jOKGh_U2L5-37" vertex="1"><mxGeometry y="30" width="510" height="30" as="geometry"/></mxCell><mxCell id="y4fqdvZqx3jOKGh_U2L5-39" value="borrow_item_id" style="shape=partialRectangle;html=1;whiteSpace=wrap;connectable=0;fillColor=none;top=0;left=0;bottom=0;right=0;overflow=hidden;" parent="y4fqdvZqx3jOKGh_U2L5-38" vertex="1"><mxGeometry width="128" height="30" as="geometry"/></mxCell><mxCell id="y4fqdvZqx3jOKGh_U2L5-40" value="duration" style="shape=partialRectangle;html=1;whiteSpace=wrap;connectable=0;fillColor=none;top=0;left=0;bottom=0;right=0;overflow=hidden;" parent="y4fqdvZqx3jOKGh_U2L5-38" vertex="1"><mxGeometry x="128" width="126" height="30" as="geometry"/></mxCell><mxCell id="y4fqdvZqx3jOKGh_U2L5-41" value="book_id" style="shape=partialRectangle;html=1;whiteSpace=wrap;connectable=0;fillColor=none;top=0;left=0;bottom=0;right=0;overflow=hidden;" parent="y4fqdvZqx3jOKGh_U2L5-38" vertex="1"><mxGeometry x="254" width="128" height="30" as="geometry"/></mxCell><mxCell id="uAXgglQziv2MwmG7Hezp-0" value="loan_id" style="shape=partialRectangle;html=1;whiteSpace=wrap;connectable=0;fillColor=none;top=0;left=0;bottom=0;right=0;overflow=hidden;" parent="y4fqdvZqx3jOKGh_U2L5-38" vertex="1"><mxGeometry x="382" width="128" height="30" as="geometry"/></mxCell><mxCell id="y4fqdvZqx3jOKGh_U2L5-43" value="" style="shape=partialRectangle;html=1;whiteSpace=wrap;collapsible=0;dropTarget=0;pointerEvents=0;fillColor=none;top=0;left=0;bottom=0;right=0;points=[[0,0.5],[1,0.5]];portConstraint=eastwest;" parent="y4fqdvZqx3jOKGh_U2L5-37" vertex="1"><mxGeometry y="60" width="510" height="70" as="geometry"/></mxCell><mxCell id="y4fqdvZqx3jOKGh_U2L5-44" value="0&lt;br&gt;1&lt;br&gt;2" style="shape=partialRectangle;html=1;whiteSpace=wrap;connectable=0;fillColor=none;top=0;left=0;bottom=0;right=0;overflow=hidden;" parent="y4fqdvZqx3jOKGh_U2L5-43" vertex="1"><mxGeometry width="128" height="70" as="geometry"/></mxCell><mxCell id="y4fqdvZqx3jOKGh_U2L5-45" value="1&lt;br&gt;2&lt;br&gt;1" style="shape=partialRectangle;html=1;whiteSpace=wrap;connectable=0;fillColor=none;top=0;left=0;bottom=0;right=0;overflow=hidden;" parent="y4fqdvZqx3jOKGh_U2L5-43" vertex="1"><mxGeometry x="128" width="126" height="70" as="geometry"/></mxCell><mxCell id="y4fqdvZqx3jOKGh_U2L5-46" value="5&lt;br&gt;4&lt;br&gt;3" style="shape=partialRectangle;html=1;whiteSpace=wrap;connectable=0;fillColor=none;top=0;left=0;bottom=0;right=0;overflow=hidden;" parent="y4fqdvZqx3jOKGh_U2L5-43" vertex="1"><mxGeometry x="254" width="128" height="70" as="geometry"/></mxCell><mxCell id="uAXgglQziv2MwmG7Hezp-1" value="0&lt;br&gt;0&lt;br&gt;1" style="shape=partialRectangle;html=1;whiteSpace=wrap;connectable=0;fillColor=none;top=0;left=0;bottom=0;right=0;overflow=hidden;" parent="y4fqdvZqx3jOKGh_U2L5-43" vertex="1"><mxGeometry x="382" width="128" height="70" as="geometry"/></mxCell><mxCell id="y4fqdvZqx3jOKGh_U2L5-48" value="Loan" style="shape=table;html=1;whiteSpace=wrap;startSize=30;container=1;collapsible=0;childLayout=tableLayout;fontStyle=1;align=center;" parent="WcOot98y8HQMscgrqins-1" vertex="1"><mxGeometry x="50" y="870" width="382" height="130" as="geometry"/></mxCell><mxCell id="y4fqdvZqx3jOKGh_U2L5-49" value="" style="shape=partialRectangle;html=1;whiteSpace=wrap;collapsible=0;dropTarget=0;pointerEvents=0;fillColor=none;top=0;left=0;bottom=0;right=0;points=[[0,0.5],[1,0.5]];portConstraint=eastwest;" parent="y4fqdvZqx3jOKGh_U2L5-48" vertex="1"><mxGeometry y="30" width="382" height="30" as="geometry"/></mxCell><mxCell id="y4fqdvZqx3jOKGh_U2L5-50" value="loan_id" style="shape=partialRectangle;html=1;whiteSpace=wrap;connectable=0;fillColor=none;top=0;left=0;bottom=0;right=0;overflow=hidden;" parent="y4fqdvZqx3jOKGh_U2L5-49" vertex="1"><mxGeometry width="128" height="30" as="geometry"/></mxCell><mxCell id="y4fqdvZqx3jOKGh_U2L5-51" value="timestamp" style="shape=partialRectangle;html=1;whiteSpace=wrap;connectable=0;fillColor=none;top=0;left=0;bottom=0;right=0;overflow=hidden;" parent="y4fqdvZqx3jOKGh_U2L5-49" vertex="1"><mxGeometry x="128" width="126" height="30" as="geometry"/></mxCell><mxCell id="y4fqdvZqx3jOKGh_U2L5-52" value="user_id" style="shape=partialRectangle;html=1;whiteSpace=wrap;connectable=0;fillColor=none;top=0;left=0;bottom=0;right=0;overflow=hidden;" parent="y4fqdvZqx3jOKGh_U2L5-49" vertex="1"><mxGeometry x="254" width="128" height="30" as="geometry"/></mxCell><mxCell id="y4fqdvZqx3jOKGh_U2L5-54" value="" style="shape=partialRectangle;html=1;whiteSpace=wrap;collapsible=0;dropTarget=0;pointerEvents=0;fillColor=none;top=0;left=0;bottom=0;right=0;points=[[0,0.5],[1,0.5]];portConstraint=eastwest;" parent="y4fqdvZqx3jOKGh_U2L5-48" vertex="1"><mxGeometry y="60" width="382" height="70" as="geometry"/></mxCell><mxCell id="y4fqdvZqx3jOKGh_U2L5-55" value="0&lt;br&gt;1&lt;br&gt;2" style="shape=partialRectangle;html=1;whiteSpace=wrap;connectable=0;fillColor=none;top=0;left=0;bottom=0;right=0;overflow=hidden;" parent="y4fqdvZqx3jOKGh_U2L5-54" vertex="1"><mxGeometry width="128" height="70" as="geometry"/></mxCell><mxCell id="y4fqdvZqx3jOKGh_U2L5-56" value="2020-10-20&lt;br&gt;2021-01-01&lt;br&gt;2020-04-08" style="shape=partialRectangle;html=1;whiteSpace=wrap;connectable=0;fillColor=none;top=0;left=0;bottom=0;right=0;overflow=hidden;" parent="y4fqdvZqx3jOKGh_U2L5-54" vertex="1"><mxGeometry x="128" width="126" height="70" as="geometry"/></mxCell><mxCell id="y4fqdvZqx3jOKGh_U2L5-57" value="5&lt;br&gt;7&lt;br&gt;10" style="shape=partialRectangle;html=1;whiteSpace=wrap;connectable=0;fillColor=none;top=0;left=0;bottom=0;right=0;overflow=hidden;" parent="y4fqdvZqx3jOKGh_U2L5-54" vertex="1"><mxGeometry x="254" width="128" height="70" as="geometry"/></mxCell><mxCell id="uAXgglQziv2MwmG7Hezp-11" value="User" style="shape=table;html=1;whiteSpace=wrap;startSize=30;container=1;collapsible=0;childLayout=tableLayout;fontStyle=1;align=center;" parent="WcOot98y8HQMscgrqins-1" vertex="1"><mxGeometry x="50" y="1020" width="638" height="130" as="geometry"/></mxCell><mxCell id="uAXgglQziv2MwmG7Hezp-12" value="" style="shape=partialRectangle;html=1;whiteSpace=wrap;collapsible=0;dropTarget=0;pointerEvents=0;fillColor=none;top=0;left=0;bottom=0;right=0;points=[[0,0.5],[1,0.5]];portConstraint=eastwest;" parent="uAXgglQziv2MwmG7Hezp-11" vertex="1"><mxGeometry y="30" width="638" height="30" as="geometry"/></mxCell><mxCell id="uAXgglQziv2MwmG7Hezp-13" value="user_id" style="shape=partialRectangle;html=1;whiteSpace=wrap;connectable=0;fillColor=none;top=0;left=0;bottom=0;right=0;overflow=hidden;" parent="uAXgglQziv2MwmG7Hezp-12" vertex="1"><mxGeometry width="128" height="30" as="geometry"/></mxCell><mxCell id="uAXgglQziv2MwmG7Hezp-14" value="first_name" style="shape=partialRectangle;html=1;whiteSpace=wrap;connectable=0;fillColor=none;top=0;left=0;bottom=0;right=0;overflow=hidden;" parent="uAXgglQziv2MwmG7Hezp-12" vertex="1"><mxGeometry x="128" width="126" height="30" as="geometry"/></mxCell><mxCell id="uAXgglQziv2MwmG7Hezp-15" value="last_name" style="shape=partialRectangle;html=1;whiteSpace=wrap;connectable=0;fillColor=none;top=0;left=0;bottom=0;right=0;overflow=hidden;" parent="uAXgglQziv2MwmG7Hezp-12" vertex="1"><mxGeometry x="254" width="126" height="30" as="geometry"/></mxCell><mxCell id="O1WELqIvH_RWfN_cdC0Z-0" value="..." style="shape=partialRectangle;html=1;whiteSpace=wrap;connectable=0;fillColor=none;top=0;left=0;bottom=0;right=0;overflow=hidden;" parent="uAXgglQziv2MwmG7Hezp-12" vertex="1"><mxGeometry x="380" width="130" height="30" as="geometry"/></mxCell><mxCell id="uAXgglQziv2MwmG7Hezp-16" value="address_id" style="shape=partialRectangle;html=1;whiteSpace=wrap;connectable=0;fillColor=none;top=0;left=0;bottom=0;right=0;overflow=hidden;" parent="uAXgglQziv2MwmG7Hezp-12" vertex="1"><mxGeometry x="510" width="128" height="30" as="geometry"/></mxCell><mxCell id="uAXgglQziv2MwmG7Hezp-17" value="" style="shape=partialRectangle;html=1;whiteSpace=wrap;collapsible=0;dropTarget=0;pointerEvents=0;fillColor=none;top=0;left=0;bottom=0;right=0;points=[[0,0.5],[1,0.5]];portConstraint=eastwest;" parent="uAXgglQziv2MwmG7Hezp-11" vertex="1"><mxGeometry y="60" width="638" height="70" as="geometry"/></mxCell><mxCell id="uAXgglQziv2MwmG7Hezp-18" value="0&lt;br&gt;1&lt;br&gt;2" style="shape=partialRectangle;html=1;whiteSpace=wrap;connectable=0;fillColor=none;top=0;left=0;bottom=0;right=0;overflow=hidden;" parent="uAXgglQziv2MwmG7Hezp-17" vertex="1"><mxGeometry width="128" height="70" as="geometry"/></mxCell><mxCell id="uAXgglQziv2MwmG7Hezp-19" value="Lukas&lt;br&gt;Phillip&lt;br&gt;Alina" style="shape=partialRectangle;html=1;whiteSpace=wrap;connectable=0;fillColor=none;top=0;left=0;bottom=0;right=0;overflow=hidden;" parent="uAXgglQziv2MwmG7Hezp-17" vertex="1"><mxGeometry x="128" width="126" height="70" as="geometry"/></mxCell><mxCell id="uAXgglQziv2MwmG7Hezp-20" value="Benner&lt;br&gt;Lange&lt;br&gt;Buss" style="shape=partialRectangle;html=1;whiteSpace=wrap;connectable=0;fillColor=none;top=0;left=0;bottom=0;right=0;overflow=hidden;" parent="uAXgglQziv2MwmG7Hezp-17" vertex="1"><mxGeometry x="254" width="126" height="70" as="geometry"/></mxCell><mxCell id="O1WELqIvH_RWfN_cdC0Z-1" value="..." style="shape=partialRectangle;html=1;whiteSpace=wrap;connectable=0;fillColor=none;top=0;left=0;bottom=0;right=0;overflow=hidden;" parent="uAXgglQziv2MwmG7Hezp-17" vertex="1"><mxGeometry x="380" width="130" height="70" as="geometry"/></mxCell><mxCell id="uAXgglQziv2MwmG7Hezp-21" value="12&lt;br&gt;Null&lt;br&gt;31" style="shape=partialRectangle;html=1;whiteSpace=wrap;connectable=0;fillColor=none;top=0;left=0;bottom=0;right=0;overflow=hidden;" parent="uAXgglQziv2MwmG7Hezp-17" vertex="1"><mxGeometry x="510" width="128" height="70" as="geometry"/></mxCell><mxCell id="XWp3LBB0Orz3ZbizhiRa-0" value="Address" style="shape=table;html=1;whiteSpace=wrap;startSize=30;container=1;collapsible=0;childLayout=tableLayout;fontStyle=1;align=center;" parent="WcOot98y8HQMscgrqins-1" vertex="1"><mxGeometry x="50" y="360" width="766" height="130" as="geometry"/></mxCell><mxCell id="XWp3LBB0Orz3ZbizhiRa-1" value="" style="shape=partialRectangle;html=1;whiteSpace=wrap;collapsible=0;dropTarget=0;pointerEvents=0;fillColor=none;top=0;left=0;bottom=0;right=0;points=[[0,0.5],[1,0.5]];portConstraint=eastwest;" parent="XWp3LBB0Orz3ZbizhiRa-0" vertex="1"><mxGeometry y="30" width="766" height="30" as="geometry"/></mxCell><mxCell id="XWp3LBB0Orz3ZbizhiRa-2" value="address_id" style="shape=partialRectangle;html=1;whiteSpace=wrap;connectable=0;fillColor=none;top=0;left=0;bottom=0;right=0;overflow=hidden;" parent="XWp3LBB0Orz3ZbizhiRa-1" vertex="1"><mxGeometry width="128" height="30" as="geometry"/></mxCell><mxCell id="XWp3LBB0Orz3ZbizhiRa-3" value="street" style="shape=partialRectangle;html=1;whiteSpace=wrap;connectable=0;fillColor=none;top=0;left=0;bottom=0;right=0;overflow=hidden;" parent="XWp3LBB0Orz3ZbizhiRa-1" vertex="1"><mxGeometry x="128" width="126" height="30" as="geometry"/></mxCell><mxCell id="XWp3LBB0Orz3ZbizhiRa-4" value="house_number" style="shape=partialRectangle;html=1;whiteSpace=wrap;connectable=0;fillColor=none;top=0;left=0;bottom=0;right=0;overflow=hidden;" parent="XWp3LBB0Orz3ZbizhiRa-1" vertex="1"><mxGeometry x="254" width="128" height="30" as="geometry"/></mxCell><mxCell id="XWp3LBB0Orz3ZbizhiRa-11" value="city" style="shape=partialRectangle;html=1;whiteSpace=wrap;connectable=0;fillColor=none;top=0;left=0;bottom=0;right=0;overflow=hidden;" parent="XWp3LBB0Orz3ZbizhiRa-1" vertex="1"><mxGeometry x="382" width="128" height="30" as="geometry"/></mxCell><mxCell id="XWp3LBB0Orz3ZbizhiRa-9" value="country" style="shape=partialRectangle;html=1;whiteSpace=wrap;connectable=0;fillColor=none;top=0;left=0;bottom=0;right=0;overflow=hidden;" parent="XWp3LBB0Orz3ZbizhiRa-1" vertex="1"><mxGeometry x="510" width="128" height="30" as="geometry"/></mxCell><mxCell id="XWp3LBB0Orz3ZbizhiRa-13" value="zipcode" style="shape=partialRectangle;html=1;whiteSpace=wrap;connectable=0;fillColor=none;top=0;left=0;bottom=0;right=0;overflow=hidden;" parent="XWp3LBB0Orz3ZbizhiRa-1" vertex="1"><mxGeometry x="638" width="128" height="30" as="geometry"/></mxCell><mxCell id="XWp3LBB0Orz3ZbizhiRa-5" value="" style="shape=partialRectangle;html=1;whiteSpace=wrap;collapsible=0;dropTarget=0;pointerEvents=0;fillColor=none;top=0;left=0;bottom=0;right=0;points=[[0,0.5],[1,0.5]];portConstraint=eastwest;" parent="XWp3LBB0Orz3ZbizhiRa-0" vertex="1"><mxGeometry y="60" width="766" height="70" as="geometry"/></mxCell><mxCell id="XWp3LBB0Orz3ZbizhiRa-6" value="0&lt;br&gt;1&lt;br&gt;2" style="shape=partialRectangle;html=1;whiteSpace=wrap;connectable=0;fillColor=none;top=0;left=0;bottom=0;right=0;overflow=hidden;" parent="XWp3LBB0Orz3ZbizhiRa-5" vertex="1"><mxGeometry width="128" height="70" as="geometry"/></mxCell><mxCell id="XWp3LBB0Orz3ZbizhiRa-7" value="test&lt;br&gt;guteBücher&lt;br&gt;abcde" style="shape=partialRectangle;html=1;whiteSpace=wrap;connectable=0;fillColor=none;top=0;left=0;bottom=0;right=0;overflow=hidden;" parent="XWp3LBB0Orz3ZbizhiRa-5" vertex="1"><mxGeometry x="128" width="126" height="70" as="geometry"/></mxCell><mxCell id="XWp3LBB0Orz3ZbizhiRa-8" value="12&lt;br&gt;5&lt;br&gt;31" style="shape=partialRectangle;html=1;whiteSpace=wrap;connectable=0;fillColor=none;top=0;left=0;bottom=0;right=0;overflow=hidden;" parent="XWp3LBB0Orz3ZbizhiRa-5" vertex="1"><mxGeometry x="254" width="128" height="70" as="geometry"/></mxCell><mxCell id="XWp3LBB0Orz3ZbizhiRa-12" value="Mannheim&lt;br&gt;Stuttgart&lt;br&gt;New York" style="shape=partialRectangle;html=1;whiteSpace=wrap;connectable=0;fillColor=none;top=0;left=0;bottom=0;right=0;overflow=hidden;" parent="XWp3LBB0Orz3ZbizhiRa-5" vertex="1"><mxGeometry x="382" width="128" height="70" as="geometry"/></mxCell><mxCell id="XWp3LBB0Orz3ZbizhiRa-10" value="Germany&lt;br&gt;Germany&lt;br&gt;USA" style="shape=partialRectangle;html=1;whiteSpace=wrap;connectable=0;fillColor=none;top=0;left=0;bottom=0;right=0;overflow=hidden;" parent="XWp3LBB0Orz3ZbizhiRa-5" vertex="1"><mxGeometry x="510" width="128" height="70" as="geometry"/></mxCell><mxCell id="XWp3LBB0Orz3ZbizhiRa-14" value="13245&lt;br&gt;98765&lt;br&gt;1234567" style="shape=partialRectangle;html=1;whiteSpace=wrap;connectable=0;fillColor=none;top=0;left=0;bottom=0;right=0;overflow=hidden;" parent="XWp3LBB0Orz3ZbizhiRa-5" vertex="1"><mxGeometry x="638" width="128" height="70" as="geometry"/></mxCell><mxCell id="IwsstD_fSWo0bns9ju5Q-0" value="Read_books" style="shape=table;html=1;whiteSpace=wrap;startSize=30;container=1;collapsible=0;childLayout=tableLayout;fontStyle=1;align=center;" parent="WcOot98y8HQMscgrqins-1" vertex="1"><mxGeometry x="440" y="870" width="382" height="130" as="geometry"/></mxCell><mxCell id="IwsstD_fSWo0bns9ju5Q-1" value="" style="shape=partialRectangle;html=1;whiteSpace=wrap;collapsible=0;dropTarget=0;pointerEvents=0;fillColor=none;top=0;left=0;bottom=0;right=0;points=[[0,0.5],[1,0.5]];portConstraint=eastwest;" parent="IwsstD_fSWo0bns9ju5Q-0" vertex="1"><mxGeometry y="30" width="382" height="30" as="geometry"/></mxCell><mxCell id="IwsstD_fSWo0bns9ju5Q-2" value="read_books_id" style="shape=partialRectangle;html=1;whiteSpace=wrap;connectable=0;fillColor=none;top=0;left=0;bottom=0;right=0;overflow=hidden;" parent="IwsstD_fSWo0bns9ju5Q-1" vertex="1"><mxGeometry width="128" height="30" as="geometry"/></mxCell><mxCell id="IwsstD_fSWo0bns9ju5Q-3" value="book_id" style="shape=partialRectangle;html=1;whiteSpace=wrap;connectable=0;fillColor=none;top=0;left=0;bottom=0;right=0;overflow=hidden;" parent="IwsstD_fSWo0bns9ju5Q-1" vertex="1"><mxGeometry x="128" width="126" height="30" as="geometry"/></mxCell><mxCell id="IwsstD_fSWo0bns9ju5Q-4" value="user_id" style="shape=partialRectangle;html=1;whiteSpace=wrap;connectable=0;fillColor=none;top=0;left=0;bottom=0;right=0;overflow=hidden;" parent="IwsstD_fSWo0bns9ju5Q-1" vertex="1"><mxGeometry x="254" width="128" height="30" as="geometry"/></mxCell><mxCell id="IwsstD_fSWo0bns9ju5Q-5" value="" style="shape=partialRectangle;html=1;whiteSpace=wrap;collapsible=0;dropTarget=0;pointerEvents=0;fillColor=none;top=0;left=0;bottom=0;right=0;points=[[0,0.5],[1,0.5]];portConstraint=eastwest;" parent="IwsstD_fSWo0bns9ju5Q-0" vertex="1"><mxGeometry y="60" width="382" height="70" as="geometry"/></mxCell><mxCell id="IwsstD_fSWo0bns9ju5Q-6" value="0&lt;br&gt;1&lt;br&gt;2" style="shape=partialRectangle;html=1;whiteSpace=wrap;connectable=0;fillColor=none;top=0;left=0;bottom=0;right=0;overflow=hidden;" parent="IwsstD_fSWo0bns9ju5Q-5" vertex="1"><mxGeometry width="128" height="70" as="geometry"/></mxCell><mxCell id="IwsstD_fSWo0bns9ju5Q-7" value="87&lt;br&gt;65&lt;br&gt;74" style="shape=partialRectangle;html=1;whiteSpace=wrap;connectable=0;fillColor=none;top=0;left=0;bottom=0;right=0;overflow=hidden;" parent="IwsstD_fSWo0bns9ju5Q-5" vertex="1"><mxGeometry x="128" width="126" height="70" as="geometry"/></mxCell><mxCell id="IwsstD_fSWo0bns9ju5Q-8" value="5&lt;br&gt;7&lt;br&gt;10" style="shape=partialRectangle;html=1;whiteSpace=wrap;connectable=0;fillColor=none;top=0;left=0;bottom=0;right=0;overflow=hidden;" parent="IwsstD_fSWo0bns9ju5Q-5" vertex="1"><mxGeometry x="254" width="128" height="70" as="geometry"/></mxCell><mxCell id="TpEkphmkd41o_My_iyib-0" value="wrote" style="shape=table;html=1;whiteSpace=wrap;startSize=30;container=1;collapsible=0;childLayout=tableLayout;fontStyle=1;align=center;" parent="WcOot98y8HQMscgrqins-1" vertex="1"><mxGeometry x="50" y="1180" width="382" height="130" as="geometry"/></mxCell><mxCell id="TpEkphmkd41o_My_iyib-1" value="" style="shape=partialRectangle;html=1;whiteSpace=wrap;collapsible=0;dropTarget=0;pointerEvents=0;fillColor=none;top=0;left=0;bottom=0;right=0;points=[[0,0.5],[1,0.5]];portConstraint=eastwest;" parent="TpEkphmkd41o_My_iyib-0" vertex="1"><mxGeometry y="30" width="382" height="30" as="geometry"/></mxCell><mxCell id="TpEkphmkd41o_My_iyib-2" value="wrote_id" style="shape=partialRectangle;html=1;whiteSpace=wrap;connectable=0;fillColor=none;top=0;left=0;bottom=0;right=0;overflow=hidden;" parent="TpEkphmkd41o_My_iyib-1" vertex="1"><mxGeometry width="128" height="30" as="geometry"/></mxCell><mxCell id="TpEkphmkd41o_My_iyib-3" value="book_id" style="shape=partialRectangle;html=1;whiteSpace=wrap;connectable=0;fillColor=none;top=0;left=0;bottom=0;right=0;overflow=hidden;" parent="TpEkphmkd41o_My_iyib-1" vertex="1"><mxGeometry x="128" width="126" height="30" as="geometry"/></mxCell><mxCell id="TpEkphmkd41o_My_iyib-4" value="author_id" style="shape=partialRectangle;html=1;whiteSpace=wrap;connectable=0;fillColor=none;top=0;left=0;bottom=0;right=0;overflow=hidden;" parent="TpEkphmkd41o_My_iyib-1" vertex="1"><mxGeometry x="254" width="128" height="30" as="geometry"/></mxCell><mxCell id="TpEkphmkd41o_My_iyib-5" value="" style="shape=partialRectangle;html=1;whiteSpace=wrap;collapsible=0;dropTarget=0;pointerEvents=0;fillColor=none;top=0;left=0;bottom=0;right=0;points=[[0,0.5],[1,0.5]];portConstraint=eastwest;" parent="TpEkphmkd41o_My_iyib-0" vertex="1"><mxGeometry y="60" width="382" height="70" as="geometry"/></mxCell><mxCell id="TpEkphmkd41o_My_iyib-6" value="0&lt;br&gt;1&lt;br&gt;2" style="shape=partialRectangle;html=1;whiteSpace=wrap;connectable=0;fillColor=none;top=0;left=0;bottom=0;right=0;overflow=hidden;" parent="TpEkphmkd41o_My_iyib-5" vertex="1"><mxGeometry width="128" height="70" as="geometry"/></mxCell><mxCell id="TpEkphmkd41o_My_iyib-7" value="0&lt;br&gt;0&lt;br&gt;1" style="shape=partialRectangle;html=1;whiteSpace=wrap;connectable=0;fillColor=none;top=0;left=0;bottom=0;right=0;overflow=hidden;" parent="TpEkphmkd41o_My_iyib-5" vertex="1"><mxGeometry x="128" width="126" height="70" as="geometry"/></mxCell><mxCell id="TpEkphmkd41o_My_iyib-8" value="5&lt;br&gt;7&lt;br&gt;7" style="shape=partialRectangle;html=1;whiteSpace=wrap;connectable=0;fillColor=none;top=0;left=0;bottom=0;right=0;overflow=hidden;" parent="TpEkphmkd41o_My_iyib-5" vertex="1"><mxGeometry x="254" width="128" height="70" as="geometry"/></mxCell></root></mxGraphModel></diagram><diagram id="8BygElmg1jzXjQkluVzu" name="Screens"><mxGraphModel dx="900" dy="426" grid="1" gridSize="10" guides="1" tooltips="1" connect="1" arrows="1" fold="1" page="1" pageScale="1" pageWidth="827" pageHeight="1169" math="0" shadow="0"><root><mxCell id="pK76ooEfwTS4_NxMJB2y-0"/><mxCell id="pK76ooEfwTS4_NxMJB2y-1" parent="pK76ooEfwTS4_NxMJB2y-0"/><mxCell id="pK76ooEfwTS4_NxMJB2y-2" value="Needs" style="text;html=1;align=center;verticalAlign=middle;resizable=0;points=[];autosize=1;" parent="pK76ooEfwTS4_NxMJB2y-1" vertex="1"><mxGeometry x="85" y="100" width="50" height="20" as="geometry"/></mxCell><mxCell id="pK76ooEfwTS4_NxMJB2y-3" value="Nice to Have" style="text;html=1;align=center;verticalAlign=middle;resizable=0;points=[];autosize=1;" parent="pK76ooEfwTS4_NxMJB2y-1" vertex="1"><mxGeometry x="610" y="100" width="80" height="20" as="geometry"/></mxCell><mxCell id="pK76ooEfwTS4_NxMJB2y-4" value="Websites" style="text;html=1;align=center;verticalAlign=middle;resizable=0;points=[];autosize=1;" parent="pK76ooEfwTS4_NxMJB2y-1" vertex="1"><mxGeometry x="384" y="20" width="60" height="20" as="geometry"/></mxCell><mxCell id="pK76ooEfwTS4_NxMJB2y-5" value="Landingpage/ Dashboard" style="whiteSpace=wrap;html=1;" parent="pK76ooEfwTS4_NxMJB2y-1" vertex="1"><mxGeometry x="50" y="150" width="120" height="60" as="geometry"/></mxCell><mxCell id="pK76ooEfwTS4_NxMJB2y-6" value="Profile Overview" style="whiteSpace=wrap;html=1;" parent="pK76ooEfwTS4_NxMJB2y-1" vertex="1"><mxGeometry x="630" y="730" width="120" height="60" as="geometry"/></mxCell><mxCell id="pK76ooEfwTS4_NxMJB2y-7" value="Search Books" style="whiteSpace=wrap;html=1;" parent="pK76ooEfwTS4_NxMJB2y-1" vertex="1"><mxGeometry x="50" y="220" width="120" height="60" as="geometry"/></mxCell><mxCell id="pK76ooEfwTS4_NxMJB2y-8" value="Explore" style="whiteSpace=wrap;html=1;" parent="pK76ooEfwTS4_NxMJB2y-1" vertex="1"><mxGeometry x="590" y="140" width="120" height="60" as="geometry"/></mxCell><mxCell id="pK76ooEfwTS4_NxMJB2y-9" value="list already read books" style="whiteSpace=wrap;html=1;" parent="pK76ooEfwTS4_NxMJB2y-1" vertex="1"><mxGeometry x="50" y="290" width="120" height="60" as="geometry"/></mxCell><mxCell id="yygkmbuHZJgsnws9YLpp-0" value="active Loans &amp;amp; Loans History" style="whiteSpace=wrap;html=1;" parent="pK76ooEfwTS4_NxMJB2y-1" vertex="1"><mxGeometry x="50" y="360" width="120" height="60" as="geometry"/></mxCell><mxCell id="yygkmbuHZJgsnws9YLpp-1" value="Loan Transaction" style="whiteSpace=wrap;html=1;" parent="pK76ooEfwTS4_NxMJB2y-1" vertex="1"><mxGeometry x="50" y="430" width="120" height="60" as="geometry"/></mxCell><mxCell id="npNrU-t53FXTWuwNIagb-0" value="Fetaures:" style="text;html=1;align=center;verticalAlign=middle;resizable=0;points=[];autosize=1;" parent="pK76ooEfwTS4_NxMJB2y-1" vertex="1"><mxGeometry x="405" y="430" width="70" height="20" as="geometry"/></mxCell><mxCell id="npNrU-t53FXTWuwNIagb-1" value="Search Books" style="whiteSpace=wrap;html=1;" parent="pK76ooEfwTS4_NxMJB2y-1" vertex="1"><mxGeometry x="85" y="800" width="120" height="60" as="geometry"/></mxCell><mxCell id="npNrU-t53FXTWuwNIagb-2" value="list already read books" style="whiteSpace=wrap;html=1;" parent="pK76ooEfwTS4_NxMJB2y-1" vertex="1"><mxGeometry x="500" y="730" width="120" height="60" as="geometry"/></mxCell><mxCell id="npNrU-t53FXTWuwNIagb-3" value="active Loans &amp;amp; Loans History" style="whiteSpace=wrap;html=1;" parent="pK76ooEfwTS4_NxMJB2y-1" vertex="1"><mxGeometry x="230" y="800" width="120" height="60" as="geometry"/></mxCell><mxCell id="npNrU-t53FXTWuwNIagb-4" value="Do Loan Transaction" style="whiteSpace=wrap;html=1;" parent="pK76ooEfwTS4_NxMJB2y-1" vertex="1"><mxGeometry x="500" y="800" width="120" height="60" as="geometry"/></mxCell><mxCell id="npNrU-t53FXTWuwNIagb-5" value="return book" style="whiteSpace=wrap;html=1;" parent="pK76ooEfwTS4_NxMJB2y-1" vertex="1"><mxGeometry x="630" y="800" width="120" height="60" as="geometry"/></mxCell><mxCell id="npNrU-t53FXTWuwNIagb-6" value="add book" style="whiteSpace=wrap;html=1;" parent="pK76ooEfwTS4_NxMJB2y-1" vertex="1"><mxGeometry x="230" y="730" width="120" height="60" as="geometry"/></mxCell><mxCell id="npNrU-t53FXTWuwNIagb-7" value="choose user" style="whiteSpace=wrap;html=1;" parent="pK76ooEfwTS4_NxMJB2y-1" vertex="1"><mxGeometry x="85" y="730" width="120" height="60" as="geometry"/></mxCell><mxCell id="npNrU-t53FXTWuwNIagb-8" value="Profile Overview" style="whiteSpace=wrap;html=1;" parent="pK76ooEfwTS4_NxMJB2y-1" vertex="1"><mxGeometry x="590" y="210" width="120" height="60" as="geometry"/></mxCell><mxCell id="npNrU-t53FXTWuwNIagb-9" value="Alina&lt;br&gt;Doku Query&amp;nbsp;&amp;nbsp;" style="text;html=1;align=center;verticalAlign=middle;resizable=0;points=[];autosize=1;" parent="pK76ooEfwTS4_NxMJB2y-1" vertex="1"><mxGeometry x="369" y="640" width="90" height="30" as="geometry"/></mxCell><mxCell id="npNrU-t53FXTWuwNIagb-10" value="Lukas" style="text;html=1;align=center;verticalAlign=middle;resizable=0;points=[];autosize=1;" parent="pK76ooEfwTS4_NxMJB2y-1" vertex="1"><mxGeometry x="555" y="680" width="50" height="20" as="geometry"/></mxCell><mxCell id="npNrU-t53FXTWuwNIagb-11" value="Phillip" style="text;html=1;align=center;verticalAlign=middle;resizable=0;points=[];autosize=1;" parent="pK76ooEfwTS4_NxMJB2y-1" vertex="1"><mxGeometry x="190" y="690" width="50" height="20" as="geometry"/></mxCell></root></mxGraphModel></diagram></mxfile>